<svg xmlns="http://www.w3.org/2000/svg" id="logo-black" data-name="DriveFind Logo Black" version="1.1" viewBox="0 0 1080 778">
  <path stroke-width="0" fill="#E8740C" d="M1064.7 177.7c0-10.9-4.7-21.2-12.9-28.4-3.9-3.7-31.9-31.9-56.8-56.8-65-65.2-68.4-68.5-70.2-70.1-8.6-7.2-19.9-10.2-30.9-8.3L45.4 163.7c-18.1 3.2-31.3 18.9-31.3 37.3v400.2c0 11.1 4.8 21.6 13.2 28.8.8.7 2.7 2.7 4 4.1 3.8 4 6.3 6.6 8.6 8.5.8.7 2.7 2.7 4 4.1 3.8 4 6.3 6.6 8.6 8.5.8.7 2.7 2.7 4 4.1 3.8 4 6.3 6.6 8.6 8.5.8.7 2.7 2.7 4 4.1 3.8 4 6.3 6.6 8.6 8.5.8.7 2.7 2.7 4 4.1 3.8 4 6.3 6.6 8.6 8.5.8.7 2.7 2.7 4 4.1 3.8 4 6.3 6.6 8.6 8.5.8.7 2.7 2.7 4 4.1 3.8 4 6.3 6.6 8.6 8.5.8.7 2.7 2.7 4 4.1 3.8 4 6.3 6.6 8.6 8.5.8.7 2.7 2.7 4 4.1 3.8 4 6.3 6.6 8.6 8.5.8.7 2.7 2.7 4 4.1 4 4.1 6.6 6.8 8.9 8.8 6.8 5.7 15.5 8.9 24.4 8.9s4.4-.2 6.6-.6l568.3-100.2c17.6-3.1 34.3-8.9 49.5-17.2 9.8-5.3 18.9-11.7 27.2-18.8l1.4-.5 3.8-4.1c2.7-2.6 5.4-5.3 7.8-7.9 2.2-2.5 4.4-5 6.6-7.8l206.9-226.4.7-.8c5.7-6.8 8.9-15.5 8.9-24.4l-1.3-179 .3.2Zm-13.5-29 .4.4c0-.1-.3-.2-.4-.4Z"/>
  <path stroke-width="0" fill="#FFF" d="M238 259.3c0-13.3-2.4-25-7.1-35.1-4.7-10.1-11.4-18.4-20-24.8-8.6-6.4-18.7-10.7-30.4-13-11.7-2.2-24.5-2.1-38.3.3l-45.2 8-28.6 5v179.1l45.2-8 29.1-5.1c13.6-2.4 26.3-6.8 37.9-13.1 11.6-6.3 21.7-14.2 30.3-23.7 8.6-9.4 15.2-20.1 20-31.9 4.7-11.9 7.1-24.5 7.1-37.8Zm-52.3 36.9c-4 8.4-9.9 15.2-17.4 20.4-7.6 5.2-16.3 8.7-26.3 10.4l-28.3 5V230.7l28.3-5c9.9-1.8 18.7-1.3 26.2 1.3s13.3 7.3 17.4 14c4.1 6.7 6.2 15.4 6.2 26.2s-2 20.6-6.1 29ZM313.6 263.2l2.7-.5 49.1 63.9 52.3-9.2-54.7-65.1c4.6-1.9 9-4.1 13-6.8 9.4-6.1 16.8-13.6 22.1-22.5 5.3-8.9 8-18.7 8-29.4s-2.6-19.4-7.8-26.4c-5.2-7-12.4-12-21.6-14.9s-19.8-3.3-31.7-1.2l-31.3 5.5-45.2 8v179.1l45.2-8v-72.5h-.1Zm24.7-77.4c7.2-1.3 12.8-.4 16.8 2.7s5.9 7.7 5.9 13.7-2 11.6-5.9 16c-4 4.4-9.6 7.2-16.8 8.5l-24.8 4.4v-40.9l24.8-4.4ZM439.9 313.4l45.2-8V126.3l-45.2 8v179.1zM599.9 221.4l-40.2-108.2-48.3 8.5 67.5 167.2 41.2-7.2L688 90.5l-47.2 8.4-40.9 122.5zM847.5 203.4l-87.7 15.5v-34.7l78.6-13.8v-37.2l-78.6 13.9V116l86.4-15.2V62.6l-95.8 16.9-35.8 6.3V265l45.2-8 87.7-15.4v-38.2zM104.4 414.5l-35.9 6.4V600l45.2-8v-66.9l79.3-14v-38.2l-79.3 14V451l83.1-14.6v-38.2l-92.4 16.3zM228.2 571.8l45.2-7.9V384.7l-45.2 8v179.1zM424.7 459.7l-80.3-87.5-31.6 5.6v179.1l45.2-8v-99.3l78.4 85.5 33.6-5.9V350.1l-45.3 7.9v101.7zM651.9 342.7c-8.6-6.4-18.7-10.7-30.4-13-11.7-2.2-24.5-2.1-38.3.3l-32.3 5.7-41.4 7.3v179.1l30.3-5.3 44-7.8c13.6-2.4 26.3-6.8 37.9-13.1 11.6-6.3 21.7-14.2 30.3-23.7 8.6-9.4 15.2-20.1 20-31.9 4.7-11.9 7.1-24.5 7.1-37.8s-2.4-25-7.1-35.1c-4.7-10.1-11.4-18.4-20-24.8h-.1Zm-25.3 96.9c-4 8.4-9.9 15.2-17.4 20.4-7.6 5.2-16.3 8.7-26.3 10.4l-28.3 5V374.1l28.3-5c9.9-1.8 18.7-1.3 26.2 1.3s13.3 7.3 17.4 14c4.1 6.7 6.2 15.4 6.2 26.2s-2 20.6-6.1 29Z"/>
</svg>